<?xml version="1.0" encoding="UTF-8" standalone="no"?>
<!-- Created with Inkscape (http://www.inkscape.org/) -->

<svg
   width="7cm"
   height="4cm"
   viewBox="0 0 69.999998 40"
   version="1.1"
   id="svg1"
   inkscape:version="1.3.2 (091e20e, 2023-11-25, custom)"
   sodipodi:docname="De Vera, Prince.svg"
   xmlns:inkscape="http://www.inkscape.org/namespaces/inkscape"
   xmlns:sodipodi="http://sodipodi.sourceforge.net/DTD/sodipodi-0.dtd"
   xmlns="http://www.w3.org/2000/svg"
   xmlns:svg="http://www.w3.org/2000/svg">
  <sodipodi:namedview
     id="namedview1"
     pagecolor="#ffffff"
     bordercolor="#000000"
     borderopacity="0.25"
     inkscape:showpageshadow="2"
     inkscape:pageopacity="0.0"
     inkscape:pagecheckerboard="0"
     inkscape:deskcolor="#d1d1d1"
     inkscape:document-units="mm"
     inkscape:zoom="2.8284271"
     inkscape:cx="80.78695"
     inkscape:cy="66.821591"
     inkscape:window-width="1904"
     inkscape:window-height="1016"
     inkscape:window-x="-6"
     inkscape:window-y="16"
     inkscape:window-maximized="0"
     inkscape:current-layer="layer1" />
  <defs
     id="defs1" />
  <g
     inkscape:label="Layer 1"
     inkscape:groupmode="layer"
     id="layer1">
    <path
       style="fill:#0029f1;stroke:#000000;stroke-width:0.211667"
       d="m -0.00103353,-0.00103353 70.00192753,0.00206706 -0.001,19.99567847 -44.999838,0.001 z"
       id="path1" />
    <path
       style="fill:#d40000;stroke:#000000;stroke-width:0.212245"
       d="m -0.26456844,39.96521 70.17267744,0.0011 -0.0021,-19.956707"
       id="path2" />
    <path
       style="fill:#d40000;stroke:#000000;stroke-width:0.211667"
       d="M 70.019496,20.079394 24.967567,20.106184 0.04677217,39.97851"
       id="path3" />
    <path
       sodipodi:type="star"
       style="fill:#f6ff0f;fill-opacity:0.980392;stroke:#c8d70e;stroke-width:0.211667;stroke-dasharray:none;stroke-opacity:0"
       id="path16"
       inkscape:flatsided="false"
       sodipodi:sides="5"
       sodipodi:cx="22.157429"
       sodipodi:cy="19.986906"
       sodipodi:r1="1.1757004"
       sodipodi:r2="0.58785027"
       sodipodi:arg1="1.1760052"
       sodipodi:arg2="1.8043237"
       inkscape:rounded="0"
       inkscape:randomized="0"
       d="m 22.609621,21.072168 -0.588227,-0.513368 -0.756376,0.193531 0.30647,-0.718077 -0.417792,-0.659551 0.777636,0.06957 0.498166,-0.601156 0.174136,0.761075 0.725675,0.288016 -0.670014,0.400798 z"
       inkscape:transform-center-x="-0.10734802"
       inkscape:transform-center-y="-0.038326818"
       transform="matrix(1.2768283,0,0,1.3097394,-6.4475917,-6.1963034)" />
    <path
       sodipodi:type="star"
       style="fill:#f6ff0f;fill-opacity:0.980392;stroke:#c8d70e;stroke-width:0.211667;stroke-dasharray:none;stroke-opacity:0"
       id="path16-4"
       inkscape:flatsided="false"
       sodipodi:sides="5"
       sodipodi:cx="22.157429"
       sodipodi:cy="19.986906"
       sodipodi:r1="1.1757004"
       sodipodi:r2="0.58785027"
       sodipodi:arg1="1.1760052"
       sodipodi:arg2="1.8043237"
       inkscape:rounded="0"
       inkscape:randomized="0"
       d="m 22.609621,21.072168 -0.588227,-0.513368 -0.756376,0.193531 0.30647,-0.718077 -0.417792,-0.659551 0.777636,0.06957 0.498166,-0.601156 0.174136,0.761075 0.725675,0.288016 -0.670014,0.400798 z"
       inkscape:transform-center-x="-0.10734802"
       inkscape:transform-center-y="-0.038326818"
       transform="matrix(1.2768283,0,0,1.3097394,-26.748964,9.9548171)" />
    <path
       sodipodi:type="star"
       style="fill:#f6ff0f;fill-opacity:0.980392;stroke:#c8d70e;stroke-width:0.211667;stroke-dasharray:none;stroke-opacity:0"
       id="path16-7"
       inkscape:flatsided="false"
       sodipodi:sides="5"
       sodipodi:cx="22.157429"
       sodipodi:cy="19.986906"
       sodipodi:r1="1.1757004"
       sodipodi:r2="0.58785027"
       sodipodi:arg1="1.1760052"
       sodipodi:arg2="1.8043237"
       inkscape:rounded="0"
       inkscape:randomized="0"
       d="m 22.609621,21.072168 -0.588227,-0.513368 -0.756376,0.193531 0.30647,-0.718077 -0.417792,-0.659551 0.777636,0.06957 0.498166,-0.601156 0.174136,0.761075 0.725675,0.288016 -0.670014,0.400798 z"
       inkscape:transform-center-x="-0.10734802"
       inkscape:transform-center-y="-0.038326818"
       transform="matrix(1.2768283,0,0,1.3097394,-26.25287,-21.695964)" />
    <ellipse
       style="fill:#ffff00;stroke:#c8d70e;stroke-width:0.211667;stroke-opacity:0"
       id="path4"
       cx="8.4153957"
       cy="20.048063"
       rx="2.7285156"
       ry="2.6954427" />
    <path
       style="fill:#ffff00;stroke:#c8d70e;stroke-width:0.211667;stroke-opacity:0"
       d="m 8.2004212,17.40223 -0.4134114,-3.68763 0.7441407,-0.661458 0.7180456,0.63941 -0.5144939,3.73008"
       id="path7" />
    <path
       style="fill:#ffff00;stroke:#c8d70e;stroke-width:0.211667;stroke-opacity:0"
       d="m 8.8007717,22.727132 0.413412,3.68763 -0.744141,0.661458 -0.718045,-0.63941 0.514494,-3.73008"
       id="path7-39" />
    <path
       style="fill:#ffff00;stroke:#c8d70e;stroke-width:0.211667;stroke-opacity:0"
       d="m 11.124325,19.744027 3.68763,-0.413411 0.661458,0.744141 -0.63941,0.718045 -3.73008,-0.514494"
       id="path7-6" />
    <path
       style="fill:#ffff00;stroke:#c8d70e;stroke-width:0.211667;stroke-opacity:0"
       d="m 5.7080734,20.334346 -3.68763,0.413411 -0.661458,-0.744141 0.63941,-0.718045 3.73008,0.514494"
       id="path7-3" />
    <path
       style="fill:#ffff00;stroke:#c8d70e;stroke-width:0.211667;stroke-opacity:0"
       d="m 10.123269,17.967209 2.392,-2.836875 0.991987,0.08504 0.0299,0.96101 -3.061143,2.192625"
       id="path7-61" />
    <path
       style="fill:#ffff00;stroke:#c8d70e;stroke-width:0.211667;stroke-opacity:0"
       d="m 6.6302797,22.084453 -2.392,2.836875 -0.991987,-0.08504 -0.0299,-0.96101 3.061143,-2.192625"
       id="path7-61-7" />
    <path
       style="fill:#ffff00;stroke:#c8d70e;stroke-width:0.211667;stroke-opacity:0"
       d="m 6.2388232,18.419711 -2.836875,-2.392 0.08504,-0.991987 0.96101,-0.0299 2.192625,3.061143"
       id="path7-61-0" />
    <path
       style="fill:#ffff00;stroke:#c8d70e;stroke-width:0.211667;stroke-opacity:0"
       d="m 10.508933,21.677525 2.836874,2.392 -0.08504,0.991987 -0.96101,0.0299 -2.192624,-3.061143"
       id="path7-61-0-6" />
    <path
       style="fill:#ffff00;stroke:#c8d70e;stroke-width:0.211667;stroke-opacity:0"
       d="m 7.7721353,17.445963 -0.8350911,-3.175 0.4712891,-0.330729 0.5208985,3.431315 0.0045,0.03647"
       id="path8" />
    <path
       style="fill:#ffff00;stroke:#c8d70e;stroke-width:0.211667;stroke-opacity:0"
       d="m 11.030634,19.414225 3.175,-0.835091 0.330729,0.471289 -3.431315,0.520898 -0.03647,0.0045"
       id="path8-1" />
    <path
       style="fill:#ffff00;stroke:#c8d70e;stroke-width:0.211667;stroke-opacity:0"
       d="m 9.1930675,22.622157 0.8350915,3.174999 -0.4712895,0.330729 -0.520898,-3.431314 -0.0045,-0.03647"
       id="path8-2" />
    <path
       style="fill:#ffff00;stroke:#c8d70e;stroke-width:0.211667;stroke-opacity:0"
       d="m 5.7704966,20.69145 -3.175,0.835091 -0.330729,-0.471289 3.431315,-0.520899 0.03647,-0.0045"
       id="path8-94" />
    <path
       style="fill:#ffff00;stroke:#c8d70e;stroke-width:0.211667;stroke-opacity:0"
       d="m 9.7874439,17.775201 1.7030741,-2.806696 0.56532,0.109128 -2.1057214,2.75884 -0.023101,0.02858"
       id="path8-9" />
    <path
       style="fill:#ffff00;stroke:#c8d70e;stroke-width:0.211667;stroke-opacity:0"
       d="m 6.9226366,22.297022 -1.703074,2.806696 -0.56532,-0.109128 2.105722,-2.75884 0.0231,-0.02858"
       id="path8-9-6" />
    <path
       style="fill:#ffff00;stroke:#c8d70e;stroke-width:0.211667;stroke-opacity:0"
       d="m 10.745398,21.44163 2.806696,1.703073 -0.109128,0.56532 -2.75884,-2.105721 -0.02858,-0.0231"
       id="path8-9-3" />
    <path
       style="fill:#ffff00;stroke:#c8d70e;stroke-width:0.211667;stroke-opacity:0"
       d="m 6.0442575,18.720954 -2.806696,-1.703074 0.109128,-0.56532 2.75884,2.105721 0.02858,0.0231"
       id="path8-9-68" />
    <path
       style="fill:#ffff00;stroke:#c8d70e;stroke-width:0.211667;stroke-opacity:0"
       d="m 9.2066731,17.474902 -0.214974,-0.05788 0.6242514,-3.55947 0.3886065,0.21084"
       id="path9" />
    <path
       style="fill:#ffff00;stroke:#c8d70e;stroke-width:0.211667;stroke-opacity:0"
       d="m 7.8192312,22.652908 0.214974,0.05788 -0.624251,3.55947 -0.388607,-0.21084"
       id="path9-3" />
    <path
       style="fill:#ffff00;stroke:#c8d70e;stroke-width:0.211667;stroke-opacity:0"
       d="m 11.041756,20.685333 0.05788,-0.214974 3.55947,0.624251 -0.21084,0.388607"
       id="path9-6" />
    <path
       style="fill:#ffff00;stroke:#c8d70e;stroke-width:0.211667;stroke-opacity:0"
       d="m 10.779996,18.741944 -0.101754,-0.198015 3.053976,-1.932031 0.105338,0.429386"
       id="path9-2" />
    <path
       style="fill:#ffff00;stroke:#c8d70e;stroke-width:0.211667;stroke-opacity:0"
       d="m 9.8357686,22.285403 0.1980154,-0.101754 1.93203,3.053976 -0.429386,0.105338"
       id="path9-2-0" />
    <path
       style="fill:#ffff00;stroke:#c8d70e;stroke-width:0.211667;stroke-opacity:0"
       d="m 6.0707626,21.380403 0.101754,0.198015 -3.053976,1.932031 -0.105338,-0.429386"
       id="path9-2-2" />
    <path
       style="fill:#ffff00;stroke:#c8d70e;stroke-width:0.211667;stroke-opacity:0"
       d="m 7.0136788,17.800136 -0.198015,0.101754 -1.932031,-3.053976 0.429386,-0.105338"
       id="path9-2-09" />
    <path
       style="fill:#ffff00;stroke:#c8d70e;stroke-width:0.211667;stroke-opacity:0"
       d="m 5.7755861,19.416159 -0.05788,0.214974 -3.55947,-0.624251 0.21084,-0.388607"
       id="path9-5" />
    <path
       style="fill:#000000;stroke:#000000;stroke-width:0.211667;stroke-opacity:0.9822222"
       d="M 0,0 V 39.943815"
       id="path10" />
    <path
       style="fill:#ffffff;stroke:#000000;stroke-width:0.141421;stroke-opacity:0.982222"
       d="m 0.44194174,75.550393 c 0,-59.600781 0.0442702,-74.4983843 0.22097087,-74.3601246 C 3.5372227,3.4392765 93.780037,75.684206 93.780037,75.736259 c 0,0.10123 -93.1111901,74.347151 -93.2381417,74.347151 -0.0549745,0 -0.0999536,-33.53986 -0.0999536,-74.533017 z M 8.2076916,140.06285 c 0.00683,-0.69857 0.083512,-1.45429 0.1703961,-1.67938 0.095868,-0.24837 0.7548126,-0.75674 1.6761593,-1.29314 0.835003,-0.48614 1.519637,-0.9317 1.521407,-0.99014 0.0018,-0.0584 -0.788342,-0.41474 -1.7558061,-0.79177 L 8.060822,134.6229 7.7727072,133.29335 c -0.4364199,-2.01392 -0.5383172,-2.39021 -0.6472673,-2.39021 -0.054962,0 -0.6336617,0.66106 -1.2860002,1.46903 -1.0481671,1.29822 -1.2407783,1.45874 -1.6565997,1.38059 -0.2587912,-0.0487 -1.098568,-0.14084 -1.866171,-0.20488 -1.63082727,-0.13606 -1.61118291,-0.25504 -0.3026401,1.83291 l 0.8897739,1.41974 -0.7136919,1.70807 c -0.3925305,0.93943 -0.6681044,1.75365 -0.6123862,1.80937 0.055718,0.0557 0.8766092,-0.10695 1.8242024,-0.36147 l 1.7228968,-0.46278 0.4427919,0.39577 c 0.2435355,0.21767 0.8737752,0.78639 1.4005326,1.26381 0.8684622,0.78713 0.9702962,0.83596 1.0924296,0.52386 0.074079,-0.18931 0.1402799,-0.91575 0.1471136,-1.61431 z M 32.768739,101.7974 c 0.353131,-0.30597 0.982187,-0.86634 1.397902,-1.24527 l 0.755844,-0.688956 -0.706719,-6.311937 c -0.388697,-3.471566 -0.750578,-6.616026 -0.804182,-6.987688 -0.08969,-0.621895 -0.06596,-0.671205 0.297729,-0.618718 0.379785,0.05481 0.432489,0.305122 1.351963,6.420992 0.526224,3.500179 0.979037,6.389497 1.006252,6.420705 0.113825,0.130534 1.844989,-1.137341 1.847896,-1.353367 0.0017,-0.129779 -0.678605,-2.822222 -1.511895,-5.983207 -0.833288,-3.160985 -1.489571,-5.767566 -1.458407,-5.792405 0.133837,-0.106665 2.143576,-0.981512 2.254779,-0.981512 0.06735,0 1.509518,2.510113 3.204813,5.57803 l 3.082353,5.578027 0.690115,-0.10439 c 0.379563,-0.05741 0.794238,-0.162661 0.9215,-0.233879 0.167962,-0.094 -0.756742,-1.690494 -3.373559,-5.824424 -1.98272,-3.132213 -3.535079,-5.738112 -3.449687,-5.790887 0.172864,-0.106836 0.179633,-0.09788 4.861601,6.434706 l 3.34339,4.66491 1.847474,-0.113038 c 1.01611,-0.06217 1.864488,-0.132869 1.885284,-0.157105 0.0208,-0.02424 0.09409,-0.890479 0.162873,-1.924981 l 0.125061,-1.880917 -4.573015,-3.864326 c -2.515158,-2.125381 -4.885839,-4.121863 -5.268179,-4.436628 -0.436106,-0.35903 -0.63175,-0.632824 -0.525,-0.734709 0.105804,-0.100985 2.129993,1.335636 5.35202,3.798475 2.850021,2.178487 5.241249,3.960884 5.313841,3.960884 0.103225,0 0.570587,-2.147328 0.485345,-2.229961 -0.01149,-0.01114 -2.3676,-1.437145 -5.235802,-3.168906 -2.868202,-1.731761 -5.238033,-3.164402 -5.266291,-3.183644 -0.02826,-0.01924 0.104162,-0.30355 0.294265,-0.631793 0.190102,-0.328242 0.444573,-0.934888 0.565494,-1.348104 0.120921,-0.413215 0.234883,-0.751301 0.25325,-0.751301 0.07728,0 12.221462,2.847415 12.479548,2.926047 0.196683,0.05992 0.410608,-0.154482 0.701801,-0.703389 0.230383,-0.434275 0.38149,-0.820838 0.335793,-0.859031 -0.0457,-0.03819 -3.016562,-0.57915 -6.601925,-1.202127 -5.950348,-1.033905 -7.008106,-1.297642 -6.628667,-1.652762 0.03632,-0.03399 3.168464,0.370344 6.960324,0.898519 l 6.894291,0.960322 1.268099,-1.369745 c 0.965258,-1.042628 1.229608,-1.43481 1.106925,-1.642198 -0.08864,-0.149848 -0.664212,-0.81937 -1.279035,-1.487827 L 56.01634,72.96451 49.093943,73.746277 c -5.29792,0.59831 -6.941982,0.730731 -7.00585,0.564292 -0.105583,-0.275147 -0.284903,-0.240746 6.790663,-1.302679 3.257111,-0.488843 5.982265,-0.907581 6.0559,-0.930528 0.177197,-0.05522 -1.067298,-1.897014 -1.281812,-1.897014 -0.09145,0 -2.760971,0.682701 -5.932276,1.517112 -3.171303,0.834412 -5.781375,1.490696 -5.800156,1.458408 -0.03484,-0.05989 -0.789929,-1.85912 -0.914899,-2.180025 -0.03786,-0.09723 2.515843,-1.605169 5.674905,-3.350982 3.587593,-1.982636 5.712604,-3.255363 5.660787,-3.390399 -0.04563,-0.118905 -0.137148,-0.505033 -0.203378,-0.858063 -0.09043,-0.482035 -0.188603,-0.615706 -0.394243,-0.536795 -0.150605,0.05779 -2.730034,1.6606 -5.732063,3.561792 -5.095667,3.227099 -5.979818,3.676528 -5.967132,3.033198 0.0025,-0.124585 2.508044,-2.016382 5.567972,-4.203993 l 5.563508,-3.977476 4.91e-4,-1.884811 4.93e-4,-1.884811 -0.662912,-0.09535 c -0.364602,-0.05244 -1.259534,-0.138637 -1.988738,-0.191546 l -1.325825,-0.0962 -4.419418,5.293076 c -2.430679,2.91119 -4.481575,5.297331 -4.557547,5.302532 -0.609084,0.0417 0.06538,-1.017336 3.560187,-5.590194 2.512372,-3.287367 3.818075,-5.134606 3.682418,-5.209688 -0.115601,-0.06398 -0.647706,-0.168481 -1.182456,-0.232218 l -0.972272,-0.115886 -3.005203,4.975587 c -1.652863,2.736572 -3.053945,5.055032 -3.113515,5.152134 -0.09539,0.155482 -1.765354,-0.40967 -2.135643,-0.722746 -0.06745,-0.05703 0.547983,-2.961917 1.367626,-6.455309 0.819643,-3.493392 1.47145,-6.363249 1.448458,-6.377458 -0.998523,-0.617115 -1.409817,-0.81137 -1.509506,-0.712942 -0.06781,0.06695 -0.645536,3.079017 -1.283841,6.693485 -1.074712,6.085656 -1.185857,6.567249 -1.502602,6.51076 -0.188126,-0.03355 -0.360739,-0.07876 -0.383588,-0.100467 -0.02285,-0.02171 0.387926,-3.136463 0.912829,-6.92168 l 0.954372,-6.88221 -0.990106,-0.883883 c -1.772338,-1.582196 -1.761836,-1.576212 -2.210774,-1.259649 -0.215899,0.152238 -0.868619,0.710234 -1.450487,1.239991 l -1.057941,0.963193 0.673928,6.157359 c 0.37066,3.386546 0.718334,6.495444 0.772609,6.908659 0.09253,0.704476 0.07197,0.751301 -0.330017,0.751301 -0.428134,0 -0.429953,-0.0084 -1.373703,-6.319767 -0.519752,-3.475872 -1.008554,-6.390071 -1.086224,-6.475998 -0.07834,-0.08667 -0.534294,0.13231 -1.023985,0.491776 l -0.882764,0.648009 0.325393,1.187602 c 0.572357,2.08897 2.629864,10.014486 2.687225,10.351189 0.04329,0.254087 -0.191594,0.418254 -1.079388,0.754435 -0.624091,0.236326 -1.232546,0.510876 -1.352121,0.610115 -0.163883,0.13601 -0.991682,-1.213968 -3.362273,-5.483212 -1.729675,-3.115003 -3.229283,-5.6632 -3.332462,-5.662658 -0.103177,5.41e-4 -0.492305,0.0856 -0.864728,0.189012 -0.511912,0.142148 -0.650609,0.257139 -0.568436,0.471281 0.05978,0.15579 1.667413,2.744506 3.572512,5.752703 2.685542,4.240535 3.409052,5.504133 3.220085,5.623822 -0.134052,0.0849 -0.283716,0.155593 -0.332591,0.157082 -0.04887,0.0015 -1.902621,-2.535137 -4.11944,-5.636946 l -4.03058,-5.639654 -1.802578,0.09288 c -0.991418,0.05108 -1.853684,0.142779 -1.916145,0.203769 -0.06246,0.06099 -0.162357,0.946158 -0.22199,1.967044 l -0.108422,1.856155 4.952141,4.154252 c 2.723678,2.284839 5.123356,4.296639 5.332617,4.470669 0.268386,0.223196 0.325187,0.371706 0.192798,0.504094 -0.132386,0.132387 -1.690101,-0.960152 -5.287405,-3.708435 -2.804849,-2.142864 -5.179207,-3.905005 -5.27635,-3.915869 -0.166971,-0.01867 -0.651666,1.923134 -0.52941,2.120947 0.03158,0.05111 2.39795,1.513437 5.258588,3.249622 l 5.20116,3.156704 -0.409049,0.994415 c -0.224978,0.546929 -0.410938,1.093853 -0.413245,1.215387 -0.0023,0.121534 -0.10796,0.220971 -0.234779,0.220971 -0.12682,0 -2.941775,-0.636396 -6.255457,-1.414214 -3.313681,-0.777817 -6.1373991,-1.414213 -6.2749298,-1.414213 -0.1375307,0 -0.4239724,0.357973 -0.636537,0.795495 -0.2125648,0.437522 -0.3278533,0.795645 -0.2561965,0.795829 0.3377259,8.66e-4 13.1817633,2.297229 13.2542363,2.369702 0.377507,0.377505 -0.911503,0.274107 -6.75999,-0.542262 -3.694633,-0.51572 -6.8438102,-0.919184 -6.998171,-0.896587 -0.1543611,0.0226 -0.8050993,0.633411 -1.446085,1.357362 -0.8865818,1.00134 -1.1265756,1.382009 -1.003045,1.590991 0.089311,0.151092 0.6624111,0.818294 1.2735561,1.482672 l 1.1111725,1.207961 6.4481014,-0.721753 c 3.546456,-0.396963 6.666863,-0.759569 6.934238,-0.805792 0.379728,-0.06565 0.486135,-0.01517 0.486135,0.23061 0,0.27816 -0.732967,0.424482 -6.319766,1.261608 -3.475872,0.520825 -6.3861329,1.004433 -6.4672464,1.074684 -0.2316976,0.200666 0.9866488,1.93927 1.2965277,1.850169 0.1458407,-0.04193 2.7311997,-0.719725 5.7452427,-1.506199 3.014043,-0.786476 5.619289,-1.471222 5.789437,-1.52166 0.200335,-0.05939 0.309359,0.0042 0.309359,0.180333 0,0.14962 0.193805,0.710266 0.430679,1.245878 0.309872,0.700678 0.373612,1.012004 0.227234,1.109894 -0.111894,0.07483 -2.632523,1.492964 -5.601397,3.151411 l -5.397953,3.015356 0.03618,0.768493 c 0.0199,0.422671 0.10446,0.83677 0.18791,0.920219 0.08445,0.08445 2.694234,-1.455535 5.885836,-3.473124 3.155638,-1.994854 5.764261,-3.535013 5.801161,-3.425065 0.03688,0.109885 -0.04267,0.264282 -0.176776,0.343108 -0.134107,0.07882 -2.670089,1.880909 -5.635518,4.00463 l -5.391689,3.861311 -0.0507,1.833476 c -0.02788,1.008414 0.01189,1.891488 0.08839,1.962386 0.0765,0.0709 0.978755,0.183841 2.005018,0.250979 l 1.865933,0.122069 4.476053,-5.314665 c 3.951983,-4.692407 4.785169,-5.558975 4.785169,-4.976894 0,0.0807 -1.749094,2.442605 -3.886874,5.248674 -2.137782,2.806068 -3.887871,5.155013 -3.889088,5.219878 -0.0021,0.113455 1.548573,0.500783 2.004936,0.500783 0.122088,0 1.643115,-2.34671 3.380059,-5.214912 1.736944,-2.868202 3.186998,-5.214913 3.222342,-5.214913 0.03534,0 0.439478,0.189915 0.898074,0.422032 0.458597,0.232118 1.173145,0.523506 1.587882,0.647529 0.550225,0.164541 0.73193,0.301337 0.672171,0.506047 -0.203347,0.696574 -2.919761,12.455866 -2.882415,12.477898 1.028655,0.606837 1.444055,0.787404 1.54716,0.672523 0.07007,-0.07807 0.627927,-3.045508 1.239678,-6.594301 0.611752,-3.548792 1.179124,-6.527921 1.260825,-6.620287 0.09249,-0.104561 0.228609,-0.08788 0.360693,0.04421 0.165007,0.165007 0.003,1.732606 -0.729295,7.055133 l -0.941442,6.842991 1.303821,1.194267 c 0.717102,0.65685 1.372869,1.197 1.457261,1.20034 0.08439,0.003 0.442366,-0.24427 0.795495,-0.55024 z M 84.928777,79.074885 c 0.0068,-0.698568 0.08332,-1.456583 0.169963,-1.68448 0.09428,-0.247977 0.774211,-0.791194 1.693327,-1.352849 0.844681,-0.516171 1.50388,-0.970398 1.464884,-1.009393 -0.03899,-0.039 -0.816582,-0.38312 -1.727972,-0.764719 -1.045467,-0.437738 -1.703076,-0.818182 -1.781719,-1.030772 -0.06856,-0.185324 -0.268164,-1.027462 -0.443573,-1.871417 -0.17541,-0.843953 -0.368072,-1.53446 -0.428141,-1.53446 -0.06007,0 -0.620475,0.643122 -1.245351,1.42916 l -1.136138,1.429162 -1.90035,-0.118236 c -1.045192,-0.06503 -1.900349,-0.07268 -1.900349,-0.01701 0,0.05567 0.436739,0.803932 0.970532,1.662793 l 0.970532,1.561564 -0.728797,1.716898 c -0.400839,0.944293 -0.686627,1.759067 -0.635084,1.810608 0.05154,0.05154 0.837693,-0.110215 1.747002,-0.359459 0.90931,-0.249245 1.710099,-0.453229 1.779532,-0.4533 0.06943,-6.9e-5 0.744757,0.55617 1.500719,1.236087 1.579228,1.420365 1.610851,1.407759 1.630983,-0.65018 z M 10.247626,18.64143 c 0.03043,-0.101908 0.740158,-0.605257 1.577172,-1.118552 0.837013,-0.513296 1.520084,-0.986764 1.517934,-1.05215 -0.0022,-0.06539 -0.771748,-0.437082 -1.710218,-0.82599 L 9.9262055,14.937631 9.5149602,13.096064 C 9.2887751,12.083203 9.0770295,11.227813 9.0444142,11.195197 9.0117989,11.162582 8.4435867,11.819226 7.7817204,12.654407 L 6.578327,14.172917 5.3220956,14.061846 C 4.6311681,14.000757 3.7546157,13.905104 3.3742011,13.849283 l -0.6916628,-0.101492 0.5033431,0.860085 c 0.2768389,0.473047 0.7272988,1.213744 1.0010221,1.645995 0.2737234,0.432251 0.4976789,0.875391 0.4976789,0.984757 0,0.109365 -0.3178952,0.942622 -0.7064339,1.851682 -0.3885388,0.909058 -0.6832595,1.676009 -0.6549347,1.704334 0.028325,0.02832 0.7632958,-0.144335 1.633269,-0.383689 0.8699733,-0.239353 1.7186871,-0.435188 1.8860304,-0.435188 0.1673436,0 0.9236231,0.558001 1.6806214,1.240001 l 1.3763603,1.240002 0.1464011,-1.814526 c 0.08052,-0.997989 0.171299,-1.897906 0.20173,-1.999814 z"
       id="path5"
       transform="scale(0.26458333)" />
  </g>
</svg>
